<svg width="463" height="45" viewBox="0 0 463 45" fill="none" xmlns="http://www.w3.org/2000/svg">
<path d="M0 44.1413V0.458439H8.44841L49.7081 40.4083V0.458439H54.9474V44.1413H46.499L5.23932 4.19146V44.1413H0Z" fill="#FF8A00"/>
<path d="M94.0745 0C111.692 0 115.097 0.589424 118.437 3.99498C121.253 6.9421 121.908 10.3477 121.908 22.2671C121.908 34.2521 121.253 37.6576 118.437 40.6048C115.097 44.0758 111.757 44.5997 93.8125 44.5997C75.8679 44.5997 72.5278 44.0758 69.1877 40.6048C66.3716 37.6576 65.7167 34.2521 65.7167 22.3326C65.7167 10.3477 66.3716 6.87661 69.1877 3.99498C72.5278 0.523933 75.8678 0 94.0745 0ZM94.0745 4.58441C79.0114 4.58441 75.5404 5.04285 73.4447 7.26956C71.6109 9.16881 71.1525 12.3124 71.1525 22.3326C71.1525 32.2873 71.6109 35.4309 73.4447 37.3302C75.6714 39.6879 78.422 40.0153 93.8125 40.0153C109.203 40.0153 111.954 39.6224 114.18 37.3302C116.014 35.4309 116.473 32.2873 116.473 22.3326C116.473 12.3124 116.014 9.16881 114.18 7.26956C112.15 5.04285 108.483 4.58441 94.0745 4.58441Z" fill="#FF8A00"/>
<path d="M126.141 0.458439H132.035L153.975 40.2773L175.98 0.458439H181.809L157.642 44.1413H150.307L126.141 0.458439Z" fill="#FF8A00"/>
<path d="M221.331 34.3176H185.572L179.809 44.1413H173.98L199.718 0.458439H207.119L232.857 44.1413H227.094L221.331 34.3176ZM218.842 30.1916L203.451 4.12597L188.061 30.1916H218.842Z" fill="#FF8A00"/>
<path d="M237.27 44.1413V0.458439H276.696C281.738 0.458439 284.489 0.916881 286.781 2.03024C290.318 3.864 291.759 6.81112 291.759 12.3779C291.759 18.0757 289.794 21.0228 285.668 21.8087C291.562 22.922 293.527 25.4762 293.527 31.8289C293.527 37.3302 291.955 40.8012 288.484 42.635C286.454 43.6828 283.572 44.1413 278.529 44.1413H237.27ZM250.237 17.8792H272.57C275.124 17.8792 276.041 17.7482 276.892 17.3553C277.94 16.7658 278.595 15.587 278.595 14.0807C278.595 12.3124 277.743 11.0026 276.303 10.4786C275.451 10.2167 274.796 10.1512 272.242 10.1512H250.237V17.8792ZM250.237 34.4485H274.01C276.696 34.4485 277.22 34.3831 278.071 34.1211C279.381 33.6627 280.167 32.3528 280.167 30.5191C280.167 28.6198 279.381 27.31 277.94 26.786C277.154 26.5241 276.63 26.4586 273.683 26.4586H250.237V34.4485Z" fill="#FF8A00"/>
<path d="M298.737 0.458439H347.135V10.3477H311.835V17.8792H345.105V26.5241H311.835V34.2521H347.594V44.1413H298.737V0.458439Z" fill="#FF8A00"/>
<path d="M353.266 44.1413L377.826 0.458439H395.639L419.544 44.1413H405.005L400.682 36.3478H372.521L368.329 44.1413H353.266ZM377.302 27.2445H396.032L386.602 9.82373L377.302 27.2445Z" fill="#FF8A00"/>
<path d="M429.979 44.1413V11.2645H410.528V0.458439H462.725V11.2645H443.274V44.1413H429.979Z" fill="#FF8A00"/>
</svg>
