<svg width="50" height="50" viewBox="0 0 50 50" fill="none" xmlns="http://www.w3.org/2000/svg">
<rect x="0.5" y="0.5" width="49" height="49" rx="24.5" stroke="#FF8A00"/>
<g clip-path="url(#clip0_214_70)">
<path fill-rule="evenodd" clip-rule="evenodd" d="M28.0796 10.5439C28.3467 10.0655 28.9284 9.88557 29.4132 10.0728C29.4684 10.0827 29.5149 10.1021 29.5493 10.1213C29.9641 10.3529 36.4462 14.189 36.4462 24.9905C36.4462 35.8229 29.9116 39.6476 29.5549 39.8564L29.5399 39.8651L29.5268 39.8717C29.3008 39.9841 29.0218 40.043 28.7277 39.9632C28.4548 39.8891 28.2151 39.7122 28.0771 39.4482C27.9244 39.1862 27.9045 38.8991 27.9771 38.6341C28.0534 38.3558 28.2371 38.1135 28.5097 37.9779C28.5087 37.9783 28.5105 37.9773 28.5147 37.9747C28.7102 37.857 34.287 34.4986 34.287 25.0058C34.287 15.3362 28.684 12.117 28.4925 12.0094C27.9719 11.7228 27.7929 11.0423 28.0796 10.5439ZM24.9675 14.0898C24.4384 13.814 23.8026 14.011 23.5171 14.5137C23.4914 14.5589 23.4748 14.6059 23.4663 14.6529C23.2733 15.1501 23.4877 15.7257 23.9533 15.9843L23.9633 15.9902C24.1533 16.102 25.1264 16.6748 26.0895 17.9717C27.1171 19.3554 28.1469 21.584 28.1469 24.9905C28.1469 31.2553 24.5389 33.6455 24.0144 33.9546L24.0064 33.9589C23.9768 33.975 23.875 34.0303 23.8065 34.0828C23.4025 34.3925 23.2489 34.9732 23.5068 35.4487C23.6442 35.7167 23.8858 35.8963 24.1612 35.971C24.4294 36.0438 24.7082 36.0205 24.9604 35.895L24.9719 35.8888C25.2431 35.7435 30.3061 32.9081 30.3061 24.9905C30.3061 17.0728 25.2431 14.2374 24.9719 14.0921L24.9675 14.0898ZM20.7314 18.6319C20.4971 18.5386 20.2171 18.5082 19.9312 18.6117C19.7143 18.6901 19.5458 18.8279 19.4247 18.9934C19.3657 19.0386 19.3165 19.1012 19.2846 19.1812C19.0746 19.7078 19.3033 20.3242 19.8315 20.5746L19.8392 20.5782L19.8478 20.5819C19.8601 20.5878 20.003 20.6559 20.2134 20.8041C20.4335 20.9592 20.7214 21.1978 21.0071 21.5373C21.5735 22.2103 22.1457 23.2958 22.1457 24.9598C22.1457 27.6804 20.5574 28.91 20.0109 29.2475C19.9755 29.2694 19.95 29.2826 19.9154 29.3006L19.9153 29.3006C19.8877 29.3149 19.8543 29.3323 19.8055 29.3594C19.7194 29.4071 19.6022 29.4782 19.4989 29.5875C19.4016 29.6905 19.3233 29.8138 19.2715 29.9554L19.2654 29.9722L19.2607 29.9895C19.1953 30.228 19.1836 30.513 19.3221 30.7887C19.4409 31.0251 19.6408 31.2315 19.9248 31.3363C20.1807 31.4362 20.4918 31.4393 20.7641 31.3038L20.7678 31.3019C20.9714 31.2009 24.3049 29.5465 24.3049 24.9751C24.3049 20.3757 20.9477 18.7272 20.7464 18.6381L20.7389 18.6349L20.7314 18.6319ZM15.9127 23.0848C14.8586 23.0848 14 23.9364 14 24.9905C14 26.0446 14.8586 26.8962 15.9127 26.8962C16.9668 26.8962 17.8254 26.0446 17.8254 24.9905C17.8254 23.9364 16.9668 23.0848 15.9127 23.0848Z" fill="#FF8A00"/>
</g>
<defs>
<clipPath id="clip0_214_70">
<rect width="30" height="30" fill="white" transform="translate(10 10)"/>
</clipPath>
</defs>
</svg>
