<svg width="25" height="25" viewBox="0 0 25 25" fill="none" xmlns="http://www.w3.org/2000/svg">
<path d="M23.4463 4.60234L13.9974 0.323294C13.0456 -0.107765 11.9562 -0.107765 11.0044 0.323294L1.55547 4.60234C0.610758 5.0299 0 5.96736 0 6.98894V17.0119C0 18.0335 0.610758 18.971 1.55547 19.3985L11.0044 23.6776C11.4794 23.8931 11.9901 24 12.5009 24C13.0116 24 13.5224 23.8931 13.9974 23.6776L23.4445 19.3985C24.3892 18.971 25 18.0335 25 17.0119V6.98894C25 5.96736 24.3892 5.0299 23.4445 4.60234H23.4463ZM3.10558 5.83069L11.7526 1.91436C11.9901 1.80747 12.2455 1.75315 12.5009 1.75315C12.7563 1.75315 13.0116 1.80747 13.2492 1.91436L16.219 3.25835L6.47189 7.67233L3.10558 6.14785C2.96807 6.08477 2.96807 5.89202 3.10558 5.82893V5.83069ZM11.6098 21.7466C11.6098 21.8745 11.474 21.9586 11.3562 21.906L2.30552 17.8075C1.99121 17.6655 1.78763 17.3519 1.78763 17.0119V7.75643C1.78763 7.62852 1.92335 7.54441 2.04122 7.59698L5.36288 9.10043C5.36288 9.10919 5.3611 9.1197 5.3611 9.12846V11.9566C5.3611 12.0933 5.44146 12.2177 5.56825 12.2755L6.89335 12.8748C7.01121 12.9291 7.14694 12.8433 7.14694 12.7154V9.90822L11.0936 11.6955C11.4097 11.8392 11.6115 12.1494 11.6115 12.4911V21.7483L11.6098 21.7466ZM12.1294 10.2341L8.60419 8.63783L18.3513 4.22385L21.8998 5.83069C22.0373 5.89377 22.0373 6.08652 21.8998 6.1496L12.8777 10.2359C12.6402 10.3428 12.367 10.3428 12.1294 10.2359V10.2341ZM23.2177 17.0119C23.2177 17.3536 23.0159 17.6638 22.6998 17.8075L13.6492 21.906C13.5313 21.9604 13.3956 21.8745 13.3956 21.7466V12.4893C13.3956 12.1476 13.5974 11.8375 13.9135 11.6938L14.6332 11.3679L22.9641 7.59523C23.082 7.54091 23.2177 7.62677 23.2177 7.75468V17.0119Z" fill="white"/>
</svg>
