<svg width="24" height="25" viewBox="0 0 24 25" fill="none" xmlns="http://www.w3.org/2000/svg">
<g id="Bell_fill">
<path id="Rectangle 1" d="M6.50248 7.04733C6.78492 4.22297 9.16156 2.07214 12 2.07214C14.8384 2.07214 17.2151 4.22297 17.4975 7.04733L17.7841 9.91347C17.8016 10.0878 17.8103 10.1749 17.8207 10.2607C17.9649 11.4439 18.3717 12.5799 19.0113 13.5857C19.0576 13.6586 19.1062 13.7315 19.2034 13.8772L20.0645 15.1689C20.8508 16.3484 21.244 16.9381 21.0715 17.4134C21.0388 17.5033 20.9935 17.588 20.9368 17.665C20.6371 18.0721 19.9283 18.0721 18.5108 18.0721H5.48923C4.07168 18.0721 3.36291 18.0721 3.06318 17.665C3.00651 17.588 2.96117 17.5033 2.92854 17.4134C2.75601 16.9381 3.14916 16.3484 3.93548 15.1689L4.79661 13.8772C4.89378 13.7315 4.94236 13.6586 4.98873 13.5857C5.62832 12.5799 6.03508 11.4439 6.17927 10.2607C6.18972 10.1749 6.19844 10.0878 6.21587 9.91347L6.50248 7.04733Z" fill="white"/>
<path id="Ellipse 45" d="M10.0681 20.7016C10.1821 20.8079 10.4332 20.9018 10.7825 20.9688C11.1318 21.0358 11.5597 21.0721 12 21.0721C12.4403 21.0721 12.8682 21.0358 13.2175 20.9688C13.5668 20.9018 13.8179 20.8079 13.9319 20.7016" stroke="white" stroke-width="2" stroke-linecap="round"/>
</g>
</svg>
