<svg width="25" height="25" viewBox="0 0 25 25" fill="none" xmlns="http://www.w3.org/2000/svg">
<path fill-rule="evenodd" clip-rule="evenodd" d="M2 5.55556C2 2.48731 4.44208 0 7.45455 0H16.5455C19.5579 0 22 2.48731 22 5.55556V19.4444C22 22.5127 19.5579 25 16.5455 25H7.45455C4.44208 25 2 22.5127 2 19.4444V5.55556ZM7.45455 1.85185C5.44624 1.85185 3.81818 3.51006 3.81818 5.55556V19.4444C3.81818 21.4899 5.44624 23.1481 7.45455 23.1481H16.5455C18.5538 23.1481 20.1818 21.4899 20.1818 19.4444V5.55556C20.1818 3.51006 18.5538 1.85185 16.5455 1.85185H7.45455ZM12 12.037C9.99169 12.037 8.36364 13.6952 8.36364 15.7407C8.36364 17.7862 9.99169 19.4444 12 19.4444C14.0083 19.4444 15.6364 17.7862 15.6364 15.7407C15.6364 13.6952 14.0083 12.037 12 12.037ZM6.54545 15.7407C6.54545 12.6725 8.98754 10.1852 12 10.1852C15.0125 10.1852 17.4545 12.6725 17.4545 15.7407C17.4545 18.809 15.0125 21.2963 12 21.2963C8.98754 21.2963 6.54545 18.809 6.54545 15.7407Z" fill="white"/>
</svg>
