<svg width="26" height="26" viewBox="0 0 26 26" fill="none" xmlns="http://www.w3.org/2000/svg">
<path d="M8.84967 12.8908C8.73703 12.8265 8.59825 12.8265 8.4856 12.8908C8.37296 12.9551 8.30357 13.0739 8.30357 13.2025L8.30357 19.3505C8.30357 19.4791 8.37296 19.598 8.4856 19.6623C8.59825 19.7266 8.73703 19.7266 8.84967 19.6623L14.2353 16.5882C14.3479 16.5239 14.4173 16.4051 14.4173 16.2765C14.4173 16.1479 14.3479 16.0291 14.2353 15.9648L8.84967 12.8908Z" fill="white"/>
<path fill-rule="evenodd" clip-rule="evenodd" d="M9.34884 1.69189C8.5065 1.69189 7.82097 2.10991 7.35683 2.70728C6.89614 3.30022 6.64242 4.08021 6.64242 4.8578V5.12358H6.37358C5.53124 5.12358 4.84571 5.54159 4.38157 6.13896C3.92088 6.7319 3.66716 7.51189 3.66716 8.28948V8.31015H3.64626C2.02793 8.31015 0.691895 9.6228 0.691895 11.2309V21.7711C0.691895 23.3792 2.02793 24.6919 3.64626 24.6919H16.787C18.4053 24.6919 19.7414 23.3792 19.7414 21.7711V21.2602H20.0102C20.8526 21.2602 21.5381 20.8422 22.0022 20.2448C22.4629 19.6519 22.7166 18.8719 22.7166 18.0943V18.0736H22.9855C23.8278 18.0736 24.5133 17.6556 24.9775 17.0583C25.4382 16.4653 25.6919 15.6853 25.6919 14.9077V4.8578C25.6919 4.08021 25.4382 3.30022 24.9775 2.70728C24.5133 2.10991 23.8278 1.69189 22.9855 1.69189H9.34884ZM8.58413 4.8578C8.58413 3.94086 9.13293 3.61153 9.34884 3.61153H22.9855C23.2014 3.61153 23.7502 3.94086 23.7502 4.8578V14.9077C23.7502 15.8247 23.2014 16.154 22.9855 16.154H22.7166V8.28948C22.7166 7.51189 22.4629 6.7319 22.0022 6.13896C21.5381 5.54159 20.8526 5.12358 20.0102 5.12358H8.58413V4.8578ZM5.60886 8.28948C5.60886 7.37254 6.15766 7.04322 6.37358 7.04322H20.0102C20.2261 7.04322 20.7749 7.37254 20.7749 8.28948V18.0943C20.7749 19.0112 20.2261 19.3406 20.0102 19.3406H19.7414V11.2309C19.7414 9.6228 18.4053 8.31015 16.787 8.31015H5.60886V8.28948ZM2.6336 11.2309C2.6336 10.6861 3.09715 10.2298 3.64626 10.2298H16.787C17.3361 10.2298 17.7997 10.6861 17.7997 11.2309V21.7711C17.7997 22.3159 17.3361 22.7723 16.787 22.7723H3.64626C3.09715 22.7723 2.6336 22.3159 2.6336 21.7711V11.2309Z" fill="white"/>
</svg>
